<svg version="1" xmlns="http://www.w3.org/2000/svg" width="346.667" height="346.667" viewBox="0 0 260 260"><path d="M0 130v130h260V0H0v130zm214.5-77.8c5.4 13.4 10 25 10.2 25.9.3 1-.9 2.1-3.8 3.4l-4.1 1.9-2.5-2.9c-17.8-21.1-29.1-31.8-38-35.7-7.1-3.1-22.2-4.8-43.9-4.8h-20.2l-.6 3.7c-.3 2.1-.9 20.4-1.2 40.7l-.7 36.9 13.9-.6c19.7-.9 29.5-3.9 36-10.9 4.6-4.8 6.2-8.5 8.1-18.7l1.7-9.1h3.5c1.9 0 4.3.7 5.3 1.7 1.7 1.5 1.8 4.2 1.8 45.3v43.7l-2.4 2.2c-1.6 1.5-3.3 2.1-5.2 1.9-2.4-.3-2.9-1-4.4-6.3-2.9-10.3-8-21.2-12-25.7-7.2-8.2-19-11.7-39.7-11.8H110v26.7c0 29.6 1.2 48.3 3.1 52.6 1.6 3.5 6.8 6.3 13.2 7.1 2.6.3 6.7.9 9.2 1.2 4 .5 4.5.8 4.5 3.1 0 1.5-1 3.7-2.2 5l-2.1 2.3H92.6c-42.7 0-43 0-45.3-2.2-1.3-1.2-2.3-3.3-2.3-4.9 0-2.5.4-2.8 5.7-3.9 8-1.7 13.5-4.3 16.5-7.8 4.9-5.8 5.2-11.2 5.3-88.2 0-76.8 0-77.1-5.5-81-2.2-1.6-15-5-18.6-5-1.2 0-.2-6.6 1.3-8.2C51.2 28.1 55 28 128 28h76.7l9.8 24.2z"/></svg>